HIERARCHY
ROOT Hips
{
  OFFSET 57.8838 95.319 338.509
  CHANNELS 6 Xposition Yposition Zposition Zrotation Xrotation Yrotation
  JOINT LeftUpLeg
  {
    OFFSET 8.64259 1.95398 -2.38835
    CHANNELS 3 Zrotation Xrotation Yrotation
    JOINT LeftLeg
    {
      OFFSET 43.7702 0 0
      CHANNELS 3 Zrotation Xrotation Yrotation
      JOINT LeftFoot
      {
        OFFSET 40.6238 0 0
        CHANNELS 3 Zrotation Xrotation Yrotation
        JOINT LeftToeBase
        {
          OFFSET 12.7242 0 0
          CHANNELS 3 Zrotation Xrotation Yrotation
          End Site
          {
            OFFSET 0 0 0
          }
        }
      }
    }
  }
  JOINT RightUpLeg
  {
    OFFSET -8.2249 1.95398 -2.59336
    CHANNELS 3 Zrotation Xrotation Yrotation
    JOINT RightLeg
    {
      OFFSET 43.5653 0 0
      CHANNELS 3 Zrotation Xrotation Yrotation
      JOINT RightFoot
      {
        OFFSET 40.6238 0 0
        CHANNELS 3 Zrotation Xrotation Yrotation
        JOINT RightToeBase
        {
          OFFSET 12.7242 0 0
          CHANNELS 3 Zrotation Xrotation Yrotation
          End Site
          {
            OFFSET 0 0 0
          }
        }
      }
    }
  }
  JOINT Spine
  {
    OFFSET 0.165834 0.87714 6.61349
    CHANNELS 3 Zrotation Xrotation Yrotation
    JOINT Spine1
    {
      OFFSET 7.38963 1.71661e-005 0
      CHANNELS 3 Zrotation Xrotation Yrotation
      JOINT Spine2
      {
        OFFSET 11.9445 1.14441e-005 0
        CHANNELS 3 Zrotation Xrotation Yrotation
        JOINT Spine3
        {
          OFFSET 14.7254 4.19617e-005 0
          CHANNELS 3 Zrotation Xrotation Yrotation
          JOINT Spine4
          {
            OFFSET 10.9679 0 0
            CHANNELS 3 Zrotation Xrotation Yrotation
            JOINT RightShoulder
            {
              OFFSET 2.46616 -1.6653 3.69651
              CHANNELS 3 Zrotation Xrotation Yrotation
              JOINT RightArm
              {
                OFFSET 13.0012 0 0
                CHANNELS 3 Zrotation Xrotation Yrotation
                JOINT RightForeArm
                {
                  OFFSET 28.7848 1.62311e-005 0
                  CHANNELS 3 Zrotation Xrotation Yrotation
                  JOINT RightHand
                  {
                    OFFSET 26.5688 1.62095e-005 0
                    CHANNELS 3 Zrotation Xrotation Yrotation
                    End Site
                    {
                      OFFSET 0 0 0
                    }
                  }
                }
              }
            }
            JOINT LeftShoulder
            {
              OFFSET 2.38034 -1.29275 -3.7523
              CHANNELS 3 Zrotation Xrotation Yrotation
              JOINT LeftArm
              {
                OFFSET 16.3182 6.07031e-005 0
                CHANNELS 3 Zrotation Xrotation Yrotation
                JOINT LeftForeArm
                {
                  OFFSET 27.0901 0 0
                  CHANNELS 3 Zrotation Xrotation Yrotation
                  JOINT LeftHand
                  {
                    OFFSET 24.5451 1.51738e-005 0
                    CHANNELS 3 Zrotation Xrotation Yrotation
                    End Site
                    {
                      OFFSET 0 0 0
                    }
                  }
                }
              }
            }
            JOINT Neck
            {
              OFFSET 5.0226 -0.0266342 0
              CHANNELS 3 Zrotation Xrotation Yrotation
              JOINT Head
              {
                OFFSET 6.69364 2.86102e-005 0
                CHANNELS 3 Zrotation Xrotation Yrotation
                End Site
                {
                  OFFSET 0 0 0
                }
              }
            }
          }
        }
      }
    }
  }
}
MOTION
Frames:	10
Frame Time:	0.0416667
-129.673 97.2789 -20.8776 96.9748 -85.2737 86.5465 -177.344 10.8487 96.9206 -11.3626 18.3156 2.61705 49.0709 -10.43 -5.00095 32.9047 1.43483 11.8491 169.258 12.6599 74.5076 -25.1342 -3.74486 -2.26874 66.3612 1.28504 12.908 32.1788 -4.4629 1.38173 -0.0251342 7.54405 -90.5221 11.7834 -0.29529 -1.00957 0.112054 -0.339435 -0.995606 -22.42 0.0217545 -1.05164 -2.40731 0.0217622 -1.05163 96.8925 -48.8704 -90.308 20.8501 -3.27914 -7.67204 2.20763 -8.33953 -17.203 -16.6052 -1.04532 2.14848 -82.4421 -55.2756 90.5358 -36.3638 -28.2023 -21.7043 6.36186 64.8395 0.0198363 -0.463681 -0.0171884 -14.9513 18.9438 2.62881 -1.43392 -19.3919 1.28368 11.1522 
-127.098 96.6372 -20.5715 96.787 -84.9755 85.9381 -177.127 11.8031 98.675 -13.6451 18.9869 3.1711 48.5639 -11.1036 -5.05778 30.4439 0.0916654 12.5419 168.999 13.9244 72.437 -26.9444 -4.03123 -2.54166 66.0022 1.42675 13.2244 33.5937 -6.28289 1.52693 -0.0352325 7.55402 -90.4775 11.7637 -0.294339 -0.920839 0.0924576 -0.334582 -0.907001 -22.4401 -0.00399711 -0.966721 -2.42743 -0.00399266 -0.966721 96.9267 -48.6 -90.2828 20.4013 -2.72949 -7.60235 2.28166 -8.73815 -16.4448 -16.2283 -1.01963 2.13875 -82.5732 -55.5799 90.3728 -35.7106 -28.555 -21.71 6.39761 63.7085 0.0190399 -0.877627 0.0109426 -15.2339 20.0647 2.92256 1.71317 -19.9093 1.16399 7.18066 
-124.254 95.6979 -20.1961 95.693 -85.343 85.1118 -176.787 12.5056 100.873 -15.7757 19.8169 3.89565 48.6819 -11.4831 -5.53941 28.7409 -0.774347 11.822 168.681 15.5376 70.6394 -29.1029 -5.04591 -2.41632 65.711 1.06047 13.5763 34.974 -8.08416 1.32658 -0.0167568 7.57159 -90.4648 11.7288 -0.251504 -0.900211 0.0575984 -0.290876 -0.888277 -22.4751 0.0306517 -0.934177 -2.46241 0.0306591 -0.934182 96.6693 -48.2488 -90.7285 19.7552 -3.2808 -7.45253 2.64403 -7.74788 -16.3442 -16.4239 -1.01509 2.01889 -82.5173 -55.1831 90.4213 -35.2895 -28.5468 -21.1707 6.05391 62.4716 0.0182469 0.529151 -0.0988287 -13.9844 20.3914 2.67525 -0.608346 -19.4513 1.20276 10.3453 
-121.181 94.3704 -19.7808 98.2554 -85.7105 88.4699 -176.243 13.0642 103.384 -17.5852 20.7585 4.62747 49.0205 -11.5661 -4.96119 28.6263 -0.799478 11.2664 168.305 17.0932 69.0395 -31.7906 -6.42977 -2.2121 65.5666 0.549189 13.993 36.7965 -10.5239 0.739687 -0.0562909 7.69941 -90.4275 11.4732 -0.311735 -0.81999 -0.197948 -0.347513 -0.805472 -22.7311 -0.0509029 -0.875764 -2.71841 -0.050889 -0.875763 96.8947 -48.856 -90.306 18.9289 -2.80922 -9.29228 2.48789 -8.38324 -15.4387 -14.9863 -0.870602 1.59197 -81.9623 -54.8054 91.1871 -34.7428 -28.4514 -21.5029 5.75014 61.5332 0.0176933 0.294256 -0.0846375 -13.7888 23.2613 2.72116 -1.33569 -21.514 1.32452 10.2659 
-117.784 92.5786 -19.3883 94.8064 -85.3651 86.4051 -175.95 14.3695 106.167 -18.8514 20.8365 5.22685 48.0484 -12.5868 -4.73979 29.5443 -0.323274 11.3357 168.096 19.308 67.7257 -35.3927 -7.39276 -1.98318 65.2005 0.821376 14.1302 38.9019 -13.3565 0.263744 -0.0739902 7.63935 -90.4523 11.593 -0.358952 -0.864036 -0.0781998 -0.396628 -0.847401 -22.6111 -0.0827009 -0.93197 -2.59844 -0.0826908 -0.931963 97.2254 -48.3795 -89.8334 19.4125 -2.96243 -8.53097 2.22211 -8.13708 -16.9707 -15.8477 -0.884729 1.31686 -82.2325 -54.8609 90.8038 -33.3015 -28.8684 -20.801 5.50734 62.7419 0.0184138 -0.381739 -0.0565738 -14.5094 21.1675 2.66333 -1.97514 -19.0765 1.6057 10.7718 
-113.956 90.4147 -19.0537 99.8206 -84.4217 92.9807 -176.718 15.1273 108.432 -21.5326 22.1335 6.28731 48.0623 -12.0614 -4.18643 32.1919 1.03385 13.069 167.871 20.2382 66.173 -38.5505 -8.77649 -2.00757 64.7709 1.16365 13.9229 41.0135 -16.1987 -0.0640906 -0.154493 7.7738 -90.4239 11.3239 -0.504947 -0.793901 -0.347216 -0.539395 -0.770907 -22.8807 -0.243016 -0.908939 -2.86805 -0.243012 -0.908939 97.2278 -49.0537 -89.7619 18.8318 -2.5322 -8.2789 2.17246 -6.66597 -18.7247 -15.9041 -0.783667 0.540634 -82.11 -54.8671 90.9803 -31.9535 -28.5496 -21.5677 4.92176 63.44 0.0188612 -0.550026 -0.0627183 -14.6795 23.301 2.55893 -0.954068 -20.6809 1.50252 7.97525 
-109.48 88.145 -18.7704 101.953 -82.2719 97.4867 -179.151 15.8565 110.148 -25.9315 24.4193 8.11836 47.7646 -11.4352 -7.4244 44.4758 7.89984 14.6855 167.617 19.2221 65.1115 -39.8043 -8.99432 -2.31575 64.3748 2.51673 14.7076 42.2658 -18.1242 -1.07985 -0.297926 7.80938 -90.3615 11.2526 -0.761084 -0.644464 -0.418231 -0.788705 -0.610351 -22.9531 -0.532218 -0.843398 -2.94043 -0.532212 -0.843404 97.6054 -50.4376 -89.0424 18.4315 -2.04626 -7.55537 2.40425 -5.82151 -19.1898 -16.2941 -0.807917 0.575111 -82.3073 -51.6988 90.4489 -33.033 -27.8963 -21.0332 4.52936 64.6523 0.0196993 0.530962 -0.179244 -14.4149 22.8197 1.57432 -2.3039 -20.464 1.22801 6.61784 
-104.11 86.3282 -18.384 100.031 -79.8273 98.1659 178.481 17.6113 110.101 -31.8438 19.7846 9.45383 52.9721 -6.16287 -9.33581 56.9146 14.4536 12.765 167.722 16.2712 64.0029 -37.8816 -9.96665 -3.21684 62.4787 6.31732 17.2669 41.8788 -18.111 -2.84953 -0.464279 7.81013 -90.3574 11.2506 -1.0903 -0.603837 -0.419967 -1.11581 -0.555268 -22.9565 -0.858424 -0.903611 -2.94384 -0.858414 -0.9036 98.5479 -51.6126 -87.5027 18.1031 0.950891 -6.09513 2.19969 -5.2179 -21.0043 -16.307 -0.92244 1.39945 -82.8766 -50.0176 89.45 -33.806 -26.8539 -20.6491 4.09602 66.7769 0.0213879 1.36197 -0.289381 -14.5372 20.8893 -0.214547 -8.36887 -18.9487 0.696837 12.0685 
-97.6934 85.7873 -18.1499 96.3643 -76.9264 96.1079 178.442 21.0512 107.591 -38.3766 19.7588 8.5633 59.3204 2.23457 0.0842914 59.9307 15.3335 9.92825 165.798 13.282 60.9864 -31.6862 -8.74546 -3.19922 56.3533 14.5504 23.9443 38.4443 -13.5408 -3.63829 -0.682369 7.8457 -90.3258 11.1796 -1.50951 -0.500761 -0.490495 -1.53009 -0.433845 -23.0304 -1.28923 -0.931348 -3.01772 -1.28921 -0.931334 99.434 -52.399 -86.11 18.1701 5.50427 -4.75413 1.70757 -6.16569 -22.1068 -17.0084 -0.90624 1.00669 -83.799 -49.6497 88.0154 -35.2773 -25.7492 -22.5294 3.99457 66.6873 0.0213102 2.91008 -0.375461 -13.9688 20.4942 -1.47935 -11.5618 -18.4844 0.139369 14.6299 
-91.6962 87.0132 -18.2649 90.7847 -75.0582 92.6106 178.989 24.6116 106.407 -43.2369 23.8755 7.41962 60.8776 5.29807 3.8682 59.793 15.0452 9.1418 165.67 10.0497 61.0989 -24.3388 -7.46117 -3.91885 51.0543 20.516 24.453 27.3297 2.38274 -5.59341 -0.654396 7.83862 -90.3744 11.1926 -1.47645 -0.600656 -0.477668 -1.50145 -0.535085 -23.0167 -1.22767 -1.01666 -3.00405 -1.22767 -1.01666 99.838 -52.8617 -85.4786 19.1469 9.04092 -3.50388 1.43405 -7.47414 -21.2899 -17.4465 -0.94919 1.13534 -84.3953 -49.6878 87.1151 -37.0996 -24.4138 -26.5751 4.76295 70.4518 0.0252047 4.00799 -0.478557 -15.2332 19.4529 -2.19103 -10.136 -17.1034 -0.544196 11.7697 
